<svg xmlns="http://www.w3.org/2000/svg" xmlns:xlink="http://www.w3.org/1999/xlink" width="1000" height="562" version="1.1" viewBox="0 0 1000 562"><title>bg1</title><desc>Created with Sketch.</desc><defs><radialGradient id="radialGradient-1" cx="50%" cy="100%" r="100%" fx="50%" fy="100%" gradientTransform="translate(0.500000,1.000000),scale(0.562000,1.000000),rotate(-90.000000),translate(-0.500000,-1.000000)"><stop offset="0%" stop-color="#B1AFF0"/><stop offset="100%" stop-color="#836DF0"/></radialGradient><linearGradient id="linearGradient-2" x1="50%" x2="50%" y1="100%" y2="0%"><stop offset="0%" stop-color="#FED6E3"/><stop offset="100%" stop-color="#A8EDEA"/></linearGradient></defs><g id="bg1" fill="none" fill-rule="evenodd" stroke="none" stroke-width="1"><rect id="Rectangle" width="1000" height="562" x="0" y="0" fill="url(#radialGradient-1)"/><g id="Group" fill="#D8D8D8" fill-rule="nonzero" opacity=".141" transform="translate(-302.000000, -129.000000)"><polygon id="Star" points="1086.513 659.313 992.467 708.756 1010.428 604.035 934.344 529.871 1039.49 514.592 1086.513 419.313 1133.536 514.592 1238.682 529.871 1162.597 604.035 1180.559 708.756" opacity=".73" transform="translate(1086.512881, 579.313490) rotate(-284.000000) translate(-1086.512881, -579.313490)"/><polygon id="Star" points="981.102 414.726 884.412 465.559 902.878 357.893 824.654 281.643 932.757 265.934 981.102 167.976 1029.448 265.934 1137.551 281.643 1059.327 357.893 1077.793 465.559" opacity=".93" transform="translate(981.102421, 332.476145) rotate(-67.000000) translate(-981.102421, -332.476145)"/><polygon id="Star" points="1198.456 399.954 1087.071 458.513 1108.343 334.483 1018.231 246.645 1142.763 228.55 1198.456 115.704 1254.148 228.55 1378.681 246.645 1288.568 334.483 1309.841 458.513" transform="translate(1198.455824, 305.204080) rotate(-23.000000) translate(-1198.455824, -305.204080)"/><polygon id="Star" points="698.555 749.644 588.051 807.739 609.155 684.692 519.756 597.549 643.303 579.597 698.555 467.644 753.807 579.597 877.353 597.549 787.954 684.692 809.058 807.739" opacity=".93" transform="translate(698.554713, 655.644159) rotate(-78.000000) translate(-698.554713, -655.644159)"/><polygon id="Star" points="700.79 425.346 618.5 468.609 634.216 376.977 567.642 312.084 659.645 298.715 700.79 215.346 741.935 298.715 833.938 312.084 767.364 376.977 783.08 468.609" opacity=".77" transform="translate(700.790237, 355.346280) rotate(-97.000000) translate(-700.790237, -355.346280)"/><polygon id="Star" points="792.145 278.476 698.981 327.455 716.774 223.716 641.402 150.247 745.563 135.112 792.145 40.726 838.727 135.112 942.887 150.247 867.516 223.716 885.309 327.455" opacity=".85" transform="translate(792.144786, 199.226121) rotate(-76.000000) translate(-792.144786, -199.226121)"/><polygon id="Star" points="374.732 554.192 299.201 593.9 313.626 509.796 252.521 450.233 336.966 437.962 374.732 361.442 412.497 437.962 496.942 450.233 435.837 509.796 450.262 593.9" opacity=".92" transform="translate(374.731701, 489.941675) rotate(-201.000000) translate(-374.731701, -489.941675)"/><polygon id="Star" points="252.984 443.047 147.183 498.671 167.389 380.859 81.794 297.424 200.084 280.236 252.984 173.047 305.885 280.236 424.175 297.424 338.579 380.859 358.786 498.671" opacity=".73" transform="translate(252.984382, 353.047498) rotate(-322.000000) translate(-252.984382, -353.047498)"/><polygon id="Star" points="463.596 260.486 380.719 304.058 396.547 211.772 329.497 146.415 422.157 132.951 463.596 48.986 505.035 132.951 597.695 146.415 530.646 211.772 546.474 304.058" opacity=".86" transform="translate(463.596233, 189.986201) rotate(-333.000000) translate(-463.596233, -189.986201)"/></g></g></svg>