<svg xmlns="http://www.w3.org/2000/svg" xmlns:xlink="http://www.w3.org/1999/xlink" width="24" height="24" x="0" y="0" enable-background="new 0 0 24 24" version="1.1" viewBox="0 0 24 24" xml:space="preserve"><g id="Bounding_Boxes"><path fill="none" d="M0,0h24v24H0V0z"/></g><g id="Rounded_1_"><path d="M18,13h-5v5c0,0.55-0.45,1-1,1h0c-0.55,0-1-0.45-1-1v-5H6c-0.55,0-1-0.45-1-1v0c0-0.55,0.45-1,1-1h5V6c0-0.55,0.45-1,1-1h0 c0.55,0,1,0.45,1,1v5h5c0.55,0,1,0.45,1,1v0C19,12.55,18.55,13,18,13z"/></g></svg>