<svg xmlns="http://www.w3.org/2000/svg" xmlns:xlink="http://www.w3.org/1999/xlink" width="24" height="24" x="0" y="0" enable-background="new 0 0 24 24" version="1.1" viewBox="0 0 24 24" xml:space="preserve"><g id="Header_x2F_BG" display="none"><rect width="520" height="520" x="-50" y="-182" fill="#F1F1F2" display="inline"/></g><g id="Bounding_Boxes"><path fill="none" d="M0,0h24v24H0V0z"/></g><g id="Rounded"><path d="M17,3H7C5.9,3,5,3.9,5,5v16l7-3l7,3V5C19,3.9,18.1,3,17,3z"/></g><g id="Sharp" display="none"><path d="M19,3H5v18l7-3l7,3V3z" display="inline"/></g><g id="Outline" display="none"><path d="M17,3H7C5.9,3,5,3.9,5,5v16l7-3l7,3V5C19,3.9,18.1,3,17,3z" display="inline"/></g><g id="Duotone" display="none"><polygon points="7 17.97 12 15.82 17 17.97 17 5 7 5" display="inline" opacity=".3"/><path d="M17,3H7C5.9,3,5,3.9,5,5v16l7-3l7,3V5C19,3.9,18.1,3,17,3z M17,17.97l-5-2.14l-5,2.14V5h10V17.97z" display="inline"/></g><g id="Fill" display="none"><path d="M17,3H7C5.9,3,5,3.9,5,5v16l7-3l7,3V5C19,3.9,18.1,3,17,3z" display="inline"/></g></svg>