<svg xmlns="http://www.w3.org/2000/svg" xmlns:xlink="http://www.w3.org/1999/xlink" width="24" height="24" x="0" y="0" enable-background="new 0 0 24 24" version="1.1" viewBox="0 0 24 24" xml:space="preserve"><g id="Bounding_Boxes"><path fill="none" d="M0,0h24v24H0V0z"/></g><g id="Rounded"><path fill="currentColor" d="M17,7h-3c-0.55,0-1,0.45-1,1c0,0.55,0.45,1,1,1h3c1.65,0,3,1.35,3,3c0,1.65-1.35,3-3,3h-3c-0.55,0-1,0.45-1,1 c0,0.55,0.45,1,1,1h3c2.76,0,5-2.24,5-5S19.76,7,17,7z M8,12c0,0.55,0.45,1,1,1h6c0.55,0,1-0.45,1-1c0-0.55-0.45-1-1-1H9 C8.45,11,8,11.45,8,12z M10,15H7c-1.65,0-3-1.35-3-3c0-1.65,1.35-3,3-3h3c0.55,0,1-0.45,1-1c0-0.55-0.45-1-1-1H7 c-2.76,0-5,2.24-5,5s2.24,5,5,5h3c0.55,0,1-0.45,1-1C11,15.45,10.55,15,10,15z"/></g></svg>