<svg xmlns="http://www.w3.org/2000/svg" xmlns:xlink="http://www.w3.org/1999/xlink" width="24" height="24" x="0" y="0" enable-background="new 0 0 24 24" version="1.1" viewBox="0 0 24 24" xml:space="preserve"><g id="Bounding_Boxes"><path fill="none" d="M0,0h24v24H0V0z"/></g><g id="Rounded"><path fill="currentColor" d="M11,18h3c0.55,0,1-0.45,1-1v-4c0-0.55-0.45-1-1-1h-3c-0.55,0-1,0.45-1,1v4C10,17.55,10.45,18,11,18z M5,18h3 c0.55,0,1-0.45,1-1V6c0-0.55-0.45-1-1-1H5C4.45,5,4,5.45,4,6v11C4,17.55,4.45,18,5,18z M17,18h3c0.55,0,1-0.45,1-1v-4 c0-0.55-0.45-1-1-1h-3c-0.55,0-1,0.45-1,1v4C16,17.55,16.45,18,17,18z M10,6v4c0,0.55,0.45,1,1,1h9c0.55,0,1-0.45,1-1V6 c0-0.55-0.45-1-1-1h-9C10.45,5,10,5.45,10,6z"/></g></svg>