<svg xmlns="http://www.w3.org/2000/svg" xmlns:xlink="http://www.w3.org/1999/xlink" height="288" version="1.1" viewBox="0 0 642 288"><title>Editor Mock</title><desc>Created with Sketch.</desc><defs><circle id="path-1" cx="606" cy="255" r="20"/><filter id="filter-2" width="125%" height="125%" x="-12.5%" y="-10%" filterUnits="objectBoundingBox"><feOffset dx="0" dy="1" in="SourceAlpha" result="shadowOffsetOuter1"/><feGaussianBlur in="shadowOffsetOuter1" result="shadowBlurOuter1" stdDeviation="1.5"/><feColorMatrix in="shadowBlurOuter1" type="matrix" values="0 0 0 0 0.653459821 0 0 0 0 0.653459821 0 0 0 0 0.653459821 0 0 0 0.5 0"/></filter></defs><g id="CMS-Editor-Onboarding" fill="none" fill-rule="evenodd" stroke="none" stroke-width="1"><g id="1.-Intro" transform="translate(-399.000000, -221.000000)"><g id="Onboarding" transform="translate(320.000000, 103.000000)"><g id="Editor-Mock"><g transform="translate(80.000000, 119.000000)"><rect id="Rectangle" width="641" height="287" x="-.5" y="-.5" fill="#EEE" stroke="#D2D2D2" rx="2"/><g id="Left-Toolbar"><rect id="left-toolbar-bg" width="18" height="286" x="0" y="0" fill="var(--mdc-theme-surface)"/><circle id="Oval-2" cx="9" cy="38" r="5" fill="#D8D8D8"/><circle id="Oval-2-Copy" cx="9" cy="243" r="5" fill="#D8D8D8"/><circle id="Oval-2-Copy-2" cx="9" cy="258" r="5" fill="#D8D8D8"/><circle id="Oval-2-Copy-3" cx="9" cy="273" r="5" fill="#D8D8D8"/></g><g id="Top-Toolbar" transform="translate(2.000000, 0.000000)"><rect id="top-toolbar-bg" width="638" height="27" x="0" y="0" fill="var(--mdc-theme-surface)"/><rect id="back-btn" width="10" height="10" x="2" y="8" fill="#D8D8D8" rx="2"/><rect id="subtitle" width="100" height="5" x="16" y="5" fill="#D2D2D2" rx="2"/><rect id="title" width="150" height="10" x="16" y="12" fill="#BBBDBF" rx="2"/><rect id="dropdown-device" width="60" height="15" x="289" y="6" fill="#BBBDBF" rx="2"/><rect id="dropdown-revision" width="60" height="15" x="468" y="6" fill="#BBBDBF" rx="2"/><rect id="settings-icon" width="15" height="15" x="533" y="6" fill="#BBBDBF" rx="2"/><rect id="additional-options" width="15" height="15" x="553" y="6" fill="#BBBDBF" rx="2"/><rect id="publish-btn" width="60" height="15" x="573" y="6" fill="#FA5723" rx="2"/></g><g id="Add-Block-Fab"><use fill="#000" fill-opacity="1" filter="url(#filter-2)" xlink:href="#path-1"/><use fill="#50E3C2" fill-rule="evenodd" xlink:href="#path-1"/></g></g></g></g></g></g></svg>