<svg xmlns="http://www.w3.org/2000/svg" xmlns:xlink="http://www.w3.org/1999/xlink" width="133" height="136" version="1.1" viewBox="0 0 133 136"><title>Dialog</title><desc>Created with Sketch.</desc><defs><polygon id="path-1" points="9 17 14 12 9 7"/><rect id="path-3" width="125" height="125" x="0" y="14" rx="2"/><filter id="filter-4" width="111.2%" height="111.2%" x="-5.6%" y="-4%" filterUnits="objectBoundingBox"><feOffset dx="0" dy="2" in="SourceAlpha" result="shadowOffsetOuter1"/><feGaussianBlur in="shadowOffsetOuter1" result="shadowBlurOuter1" stdDeviation="2"/><feColorMatrix in="shadowBlurOuter1" type="matrix" values="0 0 0 0 0.484693878 0 0 0 0 0.484693878 0 0 0 0 0.484693878 0 0 0 0.5 0"/></filter></defs><g id="CMS-Editor-Onboarding" fill="none" fill-rule="evenodd" stroke="none" stroke-width="1"><g id="6.-Content-Edit" transform="translate(-714.000000, -178.000000)"><g id="Onboarding" transform="translate(320.000000, 103.000000)"><g id="Dialog" transform="translate(398.000000, 66.000000)"><g id="Icon-/-Arrow-Drop-Up-/-Filled" transform="translate(51.000000, 0.000000)"><mask id="mask-2" fill="#fff"><use xlink:href="#path-1"/></mask><g id="✱-/-Color-/-Icons-/-White-/-Active" fill="var(--mdc-theme-surface)" fill-rule="evenodd" mask="url(#mask-2)"><rect id="Rectangle-13" width="24" height="24" x="0" y="0"/></g></g><g id="Rectangle-2"><use fill="#000" fill-opacity="1" filter="url(#filter-4)" xlink:href="#path-3"/><use fill="var(--mdc-theme-surface)" fill-rule="evenodd" xlink:href="#path-3"/></g><rect id="Rectangle-4" width="100" height="20" x="13" y="25" fill="#D8D8D8" rx="2"/><rect id="Rectangle-4-Copy" width="75" height="15" x="13" y="61" fill="#D8D8D8" rx="2"/><rect id="Rectangle-4-Copy-2" width="20" height="15" x="93" y="61" fill="#D8D8D8" rx="2"/><rect id="Rectangle-4-Copy-4" width="75" height="15" x="13" y="85" fill="#D8D8D8" rx="2"/><rect id="Rectangle-4-Copy-3" width="20" height="15" x="93" y="85" fill="#D8D8D8" rx="2"/><rect id="Rectangle-4-Copy-6" width="75" height="15" x="13" y="109" fill="#D8D8D8" rx="2"/><rect id="Rectangle-4-Copy-5" width="20" height="15" x="93" y="109" fill="#D8D8D8" rx="2"/></g></g></g></g></svg>