<svg xmlns="http://www.w3.org/2000/svg" xmlns:xlink="http://www.w3.org/1999/xlink" width="24" height="24" x="0" y="0" enable-background="new 0 0 24 24" version="1.1" viewBox="0 0 24 24" xml:space="preserve"><g id="Bounding_Boxes"><path fill="none" d="M0,0h24v24H0V0z"/></g><g id="Rounded"><path fill="currentColor" d="M10,5.5L10,5.5C10,6.33,10.67,7,11.5,7h0.71l-3.42,8H7.5C6.67,15,6,15.67,6,16.5v0C6,17.33,6.67,18,7.5,18h5 c0.83,0,1.5-0.67,1.5-1.5v0c0-0.83-0.67-1.5-1.5-1.5h-0.71l3.42-8h1.29C17.33,7,18,6.33,18,5.5v0C18,4.67,17.33,4,16.5,4h-5 C10.67,4,10,4.67,10,5.5z"/></g></svg>